# xmcd
#
# Track frame offsets:
#	150
#	10834
#	23102
#	34275
#	46665
#	63342
#	79710
#	95982
#	116792
#	133317
#	152755
#	174160
# Disc length: 2645 seconds
# Revision: 1
# Processed by: cddbd v1.5.2PL0 Copyright (c) Steve Scherf et al.
#
# Submitted via: libkcddb 0.31
#
DISCID=980a530c
DTITLE=Professor Longhair - Way Down Yonder In New Orleans
DYEAR=1900
DGENRE=Unknown
TTITLE0=Mardi Gras In New Orleans
TTITLE1=Bye Bye Baby
TTITLE2=Professor Longhair's Boogie
TTITLE3=She Ain't Got No Hair
TTITLE4=Big Chief
TTITLE5=The Banana Boat Song
TTITLE6=Tipitina
TTITLE7=Doing It
TTITLE8=Her Mind is Gone
TTITLE9=How Long Has That Train Been Gone
TTITLE10=Bald Head
TTITLE11=Messing Around
EXTD=
EXTT0=
EXTT1=
EXTT2=
EXTT3=
EXTT4=
EXTT5=
EXTT6=
EXTT7=
EXTT8=
EXTT9=
EXTT10=
EXTT11=
PLAYORDER=
